<svg width="190" height="217" viewBox="0 0 190 217" fill="none" xmlns="http://www.w3.org/2000/svg">
<rect x="2.42609" width="174.222" height="4" rx="2" transform="rotate(37.3379 2.42609 0)" fill="#20484F"/>
<rect x="118.28" y="71.4492" width="96.6213" height="4" rx="2" transform="rotate(37.3379 118.28 71.4492)" fill="#20484F"/>
<rect x="107.753" y="209.892" width="96.6213" height="4" rx="2" transform="rotate(37.3379 107.753 209.892)" fill="#20484F"/>
<rect x="76.2314" y="188.316" width="30.9318" height="4" rx="2" transform="rotate(37.3379 76.2314 188.316)" fill="#20484F"/>
<rect x="54.426" y="190" width="96.6213" height="4" rx="2" transform="rotate(37.3379 54.426 190)" fill="#20484F"/>
<rect x="129.426" y="47" width="96.6213" height="4" rx="2" transform="rotate(37.3379 129.426 47)" fill="#20484F"/>
<rect x="55.6387" y="154.492" width="96.6213" height="4" rx="2" transform="rotate(37.3379 55.6387 154.492)" fill="#20484F"/>
<rect x="120.222" y="186.88" width="96.6213" height="4" rx="2" transform="rotate(37.3379 120.222 186.88)" fill="#20484F"/>
<rect x="123.045" y="124.007" width="96.6213" height="4" rx="2" transform="rotate(37.3379 123.045 124.007)" fill="#20484F"/>
<rect x="110.936" y="115.703" width="5.86557" height="4" rx="2" transform="rotate(37.3379 110.936 115.703)" fill="#20484F"/>
<rect x="183.426" y="104" width="5.86557" height="4" rx="2" transform="rotate(37.3379 183.426 104)" fill="#20484F"/>
<rect x="55.998" y="75.1899" width="60.8243" height="4" rx="2" transform="rotate(37.3379 55.998 75.1899)" fill="#20484F"/>
<rect x="73.4009" y="136.274" width="60.8243" height="4" rx="2" transform="rotate(37.3379 73.4009 136.274)" fill="#20484F"/>
<rect x="148.642" y="111.972" width="129.617" height="4" rx="2" transform="rotate(37.3379 148.642 111.972)" fill="#20484F"/>
<rect x="137.379" y="120.166" width="129.617" height="4" rx="2" transform="rotate(37.3379 137.379 120.166)" fill="#20484F"/>
<rect x="170.426" y="62" width="129.617" height="4" rx="2" transform="rotate(37.3379 170.426 62)" fill="#20484F"/>
<rect x="18.9905" y="61.8193" width="174.222" height="4" rx="2" transform="rotate(37.3379 18.9905 61.8193)" fill="#20484F"/>
<rect x="139.61" y="185.826" width="96.6213" height="4" rx="2" transform="rotate(37.3379 139.61 185.826)" fill="#20484F"/>
<rect x="127.5" y="177.522" width="5.86557" height="4" rx="2" transform="rotate(37.3379 127.5 177.522)" fill="#20484F"/>
<rect x="165.207" y="173.791" width="129.617" height="4" rx="2" transform="rotate(37.3379 165.207 173.791)" fill="#20484F"/>
<rect x="153.944" y="181.985" width="129.617" height="4" rx="2" transform="rotate(37.3379 153.944 181.985)" fill="#20484F"/>
<rect x="45.5608" y="98.1816" width="129.617" height="4" rx="2" transform="rotate(37.3379 45.5608 98.1816)" fill="#20484F"/>
</svg>
