<svg width="326" height="157" viewBox="0 0 326 157" fill="none" xmlns="http://www.w3.org/2000/svg">
<g filter="url(#filter0_d_274_957)">
<g filter="url(#filter1_d_274_957)">
<rect x="31" y="30" width="264.26" height="94.2037" rx="7.34055" fill="white"/>
</g>
<circle cx="69.5379" cy="66.7027" r="19.5748" fill="#DCF2ED"/>
<g clip-path="url(#clip0_274_957)">
<path d="M66.9386 70.3165L63.3249 66.7028L62.0944 67.9247L66.9386 72.769L77.3377 62.3698L76.1158 61.1479L66.9386 70.3165Z" fill="#20484F"/>
</g>
<path d="M104.401 62.1279H106.398V58.0906H108.483C109.227 58.0906 109.882 57.9585 110.45 57.6942C111.018 57.4202 111.463 57.0238 111.786 56.5051C112.119 55.9863 112.285 55.3648 112.285 54.6406C112.285 53.8967 112.124 53.2703 111.801 52.7614C111.478 52.2524 111.027 51.8658 110.45 51.6016C109.882 51.3275 109.227 51.1905 108.483 51.1905H104.401V62.1279ZM106.398 56.3289V52.9522H108.512C109.05 52.9522 109.481 53.1039 109.804 53.4074C110.127 53.7108 110.288 54.1218 110.288 54.6406C110.288 55.1495 110.127 55.5606 109.804 55.8738C109.481 56.1772 109.05 56.3289 108.512 56.3289H106.398ZM113.76 62.1279H115.683V57.6796C115.683 57.0727 115.849 56.6029 116.182 56.2702C116.525 55.9276 116.965 55.7563 117.503 55.7563H118.193V54.0533H117.724C117.234 54.0533 116.804 54.1414 116.432 54.3176C116.06 54.4938 115.771 54.8118 115.565 55.2719V54.1414H113.76V62.1279ZM123.156 62.3041C123.929 62.3041 124.634 62.1279 125.27 61.7756C125.906 61.4134 126.415 60.9192 126.797 60.2928C127.179 59.6566 127.369 58.9372 127.369 58.1347C127.369 57.3321 127.179 56.6176 126.797 55.9912C126.425 55.3648 125.921 54.8706 125.285 54.5084C124.648 54.1463 123.939 53.9652 123.156 53.9652C122.363 53.9652 121.649 54.1463 121.012 54.5084C120.376 54.8706 119.867 55.3648 119.486 55.9912C119.114 56.6176 118.928 57.3321 118.928 58.1347C118.928 58.9372 119.114 59.6517 119.486 60.2781C119.867 60.9045 120.376 61.3988 121.012 61.7609C121.658 62.123 122.373 62.3041 123.156 62.3041ZM123.156 60.5424C122.725 60.5424 122.339 60.4396 121.996 60.2341C121.663 60.0285 121.399 59.7447 121.203 59.3826C121.017 59.0106 120.924 58.5947 120.924 58.1347C120.924 57.6747 121.017 57.2636 121.203 56.9015C121.399 56.5393 121.663 56.2555 121.996 56.05C122.339 55.8346 122.725 55.727 123.156 55.727C123.587 55.727 123.963 55.8346 124.286 56.05C124.619 56.2555 124.878 56.5393 125.064 56.9015C125.26 57.2636 125.358 57.6747 125.358 58.1347C125.358 58.5947 125.26 59.0106 125.064 59.3826C124.878 59.7447 124.619 60.0285 124.286 60.2341C123.963 60.4396 123.587 60.5424 123.156 60.5424ZM128.828 53.2459H130.751V51.1905H128.828V53.2459ZM127.727 65.3725C128.657 65.3725 129.391 65.1278 129.929 64.6384C130.477 64.149 130.751 63.4492 130.751 62.539V54.1414H128.828V62.539C128.828 62.9207 128.71 63.2045 128.475 63.3905C128.25 63.5863 127.932 63.6841 127.521 63.6841C127.335 63.6841 127.159 63.6694 126.993 63.6401V65.3137C127.081 65.3333 127.193 65.348 127.33 65.3578C127.467 65.3676 127.6 65.3725 127.727 65.3725ZM136.315 62.3041C137.127 62.3041 137.836 62.123 138.443 61.7609C139.06 61.389 139.491 60.9192 139.735 60.3515L138.179 59.5881C138.003 59.8915 137.758 60.1411 137.445 60.3368C137.142 60.5228 136.77 60.6158 136.329 60.6158C135.752 60.6158 135.267 60.4396 134.876 60.0873C134.484 59.7349 134.259 59.2651 134.2 58.6779H139.955C139.995 58.5702 140.019 58.4479 140.029 58.3108C140.048 58.164 140.058 58.0172 140.058 57.8704C140.058 57.1559 139.906 56.5051 139.603 55.9178C139.3 55.3306 138.859 54.8608 138.282 54.5084C137.704 54.1463 137 53.9652 136.168 53.9652C135.424 53.9652 134.749 54.1463 134.142 54.5084C133.545 54.8706 133.07 55.3648 132.718 55.9912C132.375 56.6078 132.204 57.3174 132.204 58.12C132.204 58.8932 132.375 59.5979 132.718 60.2341C133.06 60.8702 133.54 61.3743 134.156 61.7462C134.773 62.1181 135.492 62.3041 136.315 62.3041ZM136.168 55.5508C136.677 55.5508 137.098 55.7074 137.43 56.0206C137.773 56.324 137.964 56.7204 138.003 57.2098H134.244C134.352 56.6812 134.577 56.2751 134.92 55.9912C135.272 55.6976 135.688 55.5508 136.168 55.5508ZM145.363 62.3041C145.94 62.3041 146.473 62.2062 146.963 62.0105C147.452 61.8049 147.873 61.526 148.225 61.1737C148.578 60.8115 148.832 60.4053 148.989 59.9551L147.3 59.1917C147.144 59.6126 146.894 59.9453 146.552 60.19C146.219 60.4249 145.823 60.5424 145.363 60.5424C144.942 60.5424 144.565 60.4396 144.232 60.2341C143.909 60.0285 143.655 59.7447 143.469 59.3826C143.283 59.0106 143.19 58.5947 143.19 58.1347C143.19 57.6649 143.283 57.2489 143.469 56.8868C143.655 56.5246 143.909 56.2408 144.232 56.0353C144.565 55.8297 144.942 55.727 145.363 55.727C145.823 55.727 146.219 55.8493 146.552 56.094C146.894 56.3387 147.144 56.6617 147.3 57.063L148.989 56.3289C148.822 55.8591 148.563 55.448 148.211 55.0957C147.858 54.7336 147.437 54.4546 146.948 54.2589C146.459 54.0631 145.93 53.9652 145.363 53.9652C144.57 53.9652 143.855 54.1463 143.219 54.5084C142.593 54.8706 142.098 55.3648 141.736 55.9912C141.374 56.6176 141.193 57.3272 141.193 58.12C141.193 58.9128 141.374 59.6272 141.736 60.2634C142.098 60.8898 142.593 61.389 143.219 61.7609C143.855 62.123 144.57 62.3041 145.363 62.3041ZM154.089 62.216C154.412 62.216 154.73 62.1915 155.043 62.1426V60.4836C154.857 60.513 154.686 60.5277 154.529 60.5277C154.06 60.5277 153.717 60.42 153.502 60.2047C153.286 59.9894 153.179 59.6811 153.179 59.2798V55.8591H155.014V54.1414H153.179V52.321H151.256V52.9376C151.256 53.3291 151.148 53.6276 150.933 53.8331C150.717 54.0386 150.414 54.1414 150.022 54.1414H149.875V55.8591H151.256V59.3826C151.256 60.2732 151.5 60.9681 151.99 61.4673C152.489 61.9664 153.189 62.216 154.089 62.216ZM163.497 62.3041C164.339 62.3041 165.082 62.1279 165.728 61.7756C166.384 61.4232 166.898 60.9388 167.27 60.3222C167.642 59.7055 167.828 59.0057 167.828 58.2228V51.1905H165.831V58.12C165.831 58.58 165.728 58.9911 165.523 59.3532C165.327 59.7055 165.053 59.9845 164.701 60.19C164.358 60.3858 163.957 60.4836 163.497 60.4836C163.047 60.4836 162.645 60.3858 162.293 60.19C161.941 59.9845 161.662 59.7055 161.456 59.3532C161.26 58.9911 161.163 58.58 161.163 58.12V51.1905H159.166V58.2228C159.166 59.0057 159.352 59.7055 159.724 60.3222C160.096 60.9388 160.605 61.4232 161.251 61.7756C161.906 62.1279 162.655 62.3041 163.497 62.3041ZM169.66 65.0641H171.583V61.3645C171.876 61.6679 172.234 61.9028 172.655 62.0692C173.075 62.2258 173.531 62.3041 174.02 62.3041C174.793 62.3041 175.483 62.123 176.09 61.7609C176.697 61.389 177.176 60.8898 177.529 60.2634C177.881 59.6272 178.057 58.9177 178.057 58.1347C178.057 57.3517 177.881 56.647 177.529 56.0206C177.176 55.3844 176.697 54.8853 176.09 54.5231C175.483 54.1512 174.798 53.9652 174.035 53.9652C173.487 53.9652 172.992 54.0631 172.552 54.2589C172.111 54.4546 171.749 54.7287 171.465 55.081V54.1414H169.66V65.0641ZM173.8 60.5424C173.379 60.5424 172.997 60.4396 172.655 60.2341C172.322 60.0285 172.058 59.7447 171.862 59.3826C171.676 59.0204 171.583 58.6045 171.583 58.1347C171.583 57.6649 171.676 57.2489 171.862 56.8868C172.058 56.5246 172.322 56.2408 172.655 56.0353C172.997 55.8297 173.379 55.727 173.8 55.727C174.24 55.727 174.627 55.8346 174.96 56.05C175.302 56.2555 175.571 56.5393 175.767 56.9015C175.963 57.2636 176.061 57.6747 176.061 58.1347C176.061 58.5947 175.963 59.0106 175.767 59.3826C175.571 59.7447 175.302 60.0285 174.96 60.2341C174.627 60.4396 174.24 60.5424 173.8 60.5424ZM183.238 62.3041C183.757 62.3041 184.236 62.216 184.677 62.0398C185.117 61.8539 185.484 61.5896 185.778 61.2471V62.1279H187.598V51.1905H185.675V54.9489C185.078 54.2931 184.261 53.9652 183.223 53.9652C182.47 53.9652 181.784 54.1512 181.168 54.5231C180.561 54.8853 180.081 55.3844 179.729 56.0206C179.377 56.647 179.201 57.3517 179.201 58.1347C179.201 58.9177 179.377 59.6272 179.729 60.2634C180.081 60.8898 180.561 61.389 181.168 61.7609C181.775 62.123 182.465 62.3041 183.238 62.3041ZM183.443 60.5424C183.013 60.5424 182.626 60.4396 182.284 60.2341C181.941 60.0285 181.672 59.7447 181.476 59.3826C181.29 59.0106 181.197 58.5947 181.197 58.1347C181.197 57.6747 181.29 57.2636 181.476 56.9015C181.672 56.5393 181.941 56.2555 182.284 56.05C182.626 55.8346 183.013 55.727 183.443 55.727C183.874 55.727 184.256 55.8297 184.588 56.0353C184.931 56.2408 185.195 56.5246 185.381 56.8868C185.577 57.2489 185.675 57.6649 185.675 58.1347C185.675 58.6045 185.577 59.0204 185.381 59.3826C185.195 59.7447 184.931 60.0285 184.588 60.2341C184.256 60.4396 183.874 60.5424 183.443 60.5424ZM191.81 62.3041C192.847 62.3041 193.679 61.9615 194.306 61.2764V62.1279H196.126V56.8134C196.126 56.2555 195.984 55.7612 195.7 55.3306C195.416 54.8999 195.025 54.5672 194.526 54.3323C194.036 54.0876 193.464 53.9652 192.808 53.9652C192.005 53.9652 191.291 54.1561 190.665 54.5378C190.038 54.9195 189.608 55.4236 189.373 56.05L190.944 56.8134C191.09 56.4512 191.32 56.1625 191.634 55.9472C191.947 55.7221 192.314 55.6095 192.735 55.6095C193.175 55.6095 193.527 55.727 193.792 55.9619C194.066 56.187 194.203 56.4708 194.203 56.8134V57.0776L191.824 57.4593C190.885 57.6159 190.19 57.9145 189.74 58.3549C189.289 58.7953 189.064 59.3483 189.064 60.0139C189.064 60.7185 189.314 61.2764 189.813 61.6875C190.312 62.0986 190.978 62.3041 191.81 62.3041ZM191.061 59.9404C191.061 59.3826 191.438 59.0302 192.191 58.8834L194.203 58.5457V58.8687C194.203 59.4168 194.012 59.8817 193.63 60.2634C193.258 60.6451 192.769 60.836 192.162 60.836C191.839 60.836 191.575 60.7577 191.369 60.6011C191.164 60.4347 191.061 60.2145 191.061 59.9404ZM201.401 62.216C201.724 62.216 202.042 62.1915 202.355 62.1426V60.4836C202.169 60.513 201.998 60.5277 201.842 60.5277C201.372 60.5277 201.029 60.42 200.814 60.2047C200.599 59.9894 200.491 59.6811 200.491 59.2798V55.8591H202.326V54.1414H200.491V52.321H198.568V52.9376C198.568 53.3291 198.46 53.6276 198.245 53.8331C198.029 54.0386 197.726 54.1414 197.334 54.1414H197.188V55.8591H198.568V59.3826C198.568 60.2732 198.812 60.9681 199.302 61.4673C199.801 61.9664 200.501 62.216 201.401 62.216ZM207.541 62.3041C208.353 62.3041 209.063 62.123 209.67 61.7609C210.286 61.389 210.717 60.9192 210.961 60.3515L209.405 59.5881C209.229 59.8915 208.984 60.1411 208.671 60.3368C208.368 60.5228 207.996 60.6158 207.555 60.6158C206.978 60.6158 206.494 60.4396 206.102 60.0873C205.711 59.7349 205.485 59.2651 205.427 58.6779H211.182C211.221 58.5702 211.245 58.4479 211.255 58.3108C211.275 58.164 211.284 58.0172 211.284 57.8704C211.284 57.1559 211.133 56.5051 210.829 55.9178C210.526 55.3306 210.085 54.8608 209.508 54.5084C208.931 54.1463 208.226 53.9652 207.394 53.9652C206.65 53.9652 205.975 54.1463 205.368 54.5084C204.771 54.8706 204.296 55.3648 203.944 55.9912C203.601 56.6078 203.43 57.3174 203.43 58.12C203.43 58.8932 203.601 59.5979 203.944 60.2341C204.286 60.8702 204.766 61.3743 205.383 61.7462C205.999 62.1181 206.719 62.3041 207.541 62.3041ZM207.394 55.5508C207.903 55.5508 208.324 55.7074 208.657 56.0206C208.999 56.324 209.19 56.7204 209.229 57.2098H205.471C205.578 56.6812 205.804 56.2751 206.146 55.9912C206.498 55.6976 206.914 55.5508 207.394 55.5508ZM216.457 62.3041C216.975 62.3041 217.455 62.216 217.895 62.0398C218.336 61.8539 218.703 61.5896 218.996 61.2471V62.1279H220.817V51.1905H218.894V54.9489C218.297 54.2931 217.479 53.9652 216.442 53.9652C215.688 53.9652 215.003 54.1512 214.387 54.5231C213.78 54.8853 213.3 55.3844 212.948 56.0206C212.596 56.647 212.419 57.3517 212.419 58.1347C212.419 58.9177 212.596 59.6272 212.948 60.2634C213.3 60.8898 213.78 61.389 214.387 61.7609C214.993 62.123 215.683 62.3041 216.457 62.3041ZM216.662 60.5424C216.232 60.5424 215.845 60.4396 215.502 60.2341C215.16 60.0285 214.891 59.7447 214.695 59.3826C214.509 59.0106 214.416 58.5947 214.416 58.1347C214.416 57.6747 214.509 57.2636 214.695 56.9015C214.891 56.5393 215.16 56.2555 215.502 56.05C215.845 55.8346 216.232 55.727 216.662 55.727C217.093 55.727 217.475 55.8297 217.807 56.0353C218.15 56.2408 218.414 56.5246 218.6 56.8868C218.796 57.2489 218.894 57.6649 218.894 58.1347C218.894 58.6045 218.796 59.0204 218.6 59.3826C218.414 59.7447 218.15 60.0285 217.807 60.2341C217.475 60.4396 217.093 60.5424 216.662 60.5424Z" fill="#20484F"/>
<rect x="105.017" y="75.2666" width="166.997" height="6.72884" rx="3.36442" fill="#20484F" fill-opacity="0.1"/>
<rect x="105.017" y="89.3362" width="111.332" height="6.72884" rx="3.36442" fill="#20484F" fill-opacity="0.1"/>
</g>
<defs>
<filter id="filter0_d_274_957" x="0.384239" y="0.915027" width="325.491" height="155.435" filterUnits="userSpaceOnUse" color-interpolation-filters="sRGB">
<feFlood flood-opacity="0" result="BackgroundImageFix"/>
<feColorMatrix in="SourceAlpha" type="matrix" values="0 0 0 0 0 0 0 0 0 0 0 0 0 0 0 0 0 0 127 0" result="hardAlpha"/>
<feOffset dy="1.53079"/>
<feGaussianBlur stdDeviation="15.3079"/>
<feComposite in2="hardAlpha" operator="out"/>
<feColorMatrix type="matrix" values="0 0 0 0 0.741667 0 0 0 0 0.741667 0 0 0 0 0.741667 0 0 0 0.11 0"/>
<feBlend mode="normal" in2="BackgroundImageFix" result="effect1_dropShadow_274_957"/>
<feBlend mode="normal" in="SourceGraphic" in2="effect1_dropShadow_274_957" result="shape"/>
</filter>
<filter id="filter1_d_274_957" x="6.5315" y="7.97835" width="313.197" height="143.141" filterUnits="userSpaceOnUse" color-interpolation-filters="sRGB">
<feFlood flood-opacity="0" result="BackgroundImageFix"/>
<feColorMatrix in="SourceAlpha" type="matrix" values="0 0 0 0 0 0 0 0 0 0 0 0 0 0 0 0 0 0 127 0" result="hardAlpha"/>
<feOffset dy="2.44685"/>
<feGaussianBlur stdDeviation="12.2342"/>
<feComposite in2="hardAlpha" operator="out"/>
<feColorMatrix type="matrix" values="0 0 0 0 0.541667 0 0 0 0 0.541667 0 0 0 0 0.541667 0 0 0 0.04 0"/>
<feBlend mode="normal" in2="BackgroundImageFix" result="effect1_dropShadow_274_957"/>
<feBlend mode="normal" in="SourceGraphic" in2="effect1_dropShadow_274_957" result="shape"/>
</filter>
<clipPath id="clip0_274_957">
<rect width="20.7982" height="20.7982" fill="white" transform="translate(59.1389 56.3037)"/>
</clipPath>
</defs>
</svg>
