<svg width="326" height="151" viewBox="0 0 326 151" fill="none" xmlns="http://www.w3.org/2000/svg">
<g filter="url(#filter0_d_274_967)">
<g filter="url(#filter1_d_274_967)">
<rect x="31" y="30" width="264" height="88" rx="7.34055" fill="#20484F"/>
</g>
<circle cx="69.5379" cy="66.7027" r="19.5748" fill="#DCF2ED"/>
<path d="M73.3333 62L75.2416 63.9083L71.175 67.975L67.8416 64.6417L61.6666 70.825L62.8416 72L67.8416 67L71.175 70.3333L76.425 65.0917L78.3333 67V62H73.3333Z" fill="#20484F"/>
<path d="M101.41 62.1279H108.751V60.4396H104.009L106.578 57.7383C107.273 57.014 107.782 56.3729 108.105 55.8151C108.438 55.2572 108.604 54.6797 108.604 54.0827C108.604 53.4759 108.452 52.9425 108.149 52.4824C107.855 52.0224 107.439 51.6652 106.901 51.4107C106.373 51.1465 105.756 51.0143 105.051 51.0143C104.464 51.0143 103.906 51.1318 103.378 51.3667C102.859 51.5918 102.418 51.9197 102.056 52.3503C101.694 52.7712 101.454 53.2703 101.337 53.8478L103.084 54.391C103.241 53.8723 103.49 53.4808 103.833 53.2165C104.175 52.9425 104.581 52.8054 105.051 52.8054C105.501 52.8054 105.868 52.9376 106.152 53.2018C106.446 53.4661 106.593 53.8282 106.593 54.2882C106.593 54.5623 106.529 54.8314 106.402 55.0957C106.275 55.3599 106.05 55.678 105.727 56.05C105.404 56.4219 104.953 56.9112 104.376 57.5181L101.41 60.6305V62.1279ZM112.035 62.1279H114.031V51.1905H109.921V52.8935H112.035V62.1279ZM119.776 62.3041C120.53 62.3041 121.2 62.1426 121.788 61.8196C122.375 61.4869 122.835 61.0415 123.168 60.4836C123.51 59.916 123.682 59.2798 123.682 58.5751C123.682 57.8802 123.535 57.2636 123.241 56.7253C122.947 56.1772 122.532 55.7465 121.993 55.4333C121.465 55.1202 120.838 54.9636 120.114 54.9636C119.419 54.9636 118.847 55.1055 118.396 55.3893L118.734 52.8788H123.27V51.1905H117.31L116.444 57.2685L118.073 57.6355C118.21 57.3223 118.431 57.0825 118.734 56.9161C119.047 56.7498 119.395 56.6666 119.776 56.6666C120.334 56.6666 120.789 56.8427 121.142 57.1951C121.494 57.5474 121.67 58.0074 121.67 58.5751C121.67 59.1428 121.494 59.6077 121.142 59.9698C120.789 60.3319 120.334 60.513 119.776 60.513C119.326 60.513 118.915 60.3907 118.543 60.146C118.171 59.8915 117.902 59.5196 117.736 59.0302L116.003 59.6468C116.14 60.1949 116.395 60.6696 116.767 61.0709C117.148 61.4722 117.599 61.7805 118.117 61.9958C118.646 62.2013 119.199 62.3041 119.776 62.3041ZM127.953 62.1279H129.877V57.4447C129.877 56.9259 130.023 56.51 130.317 56.1968C130.62 55.8836 131.012 55.727 131.491 55.727C131.971 55.727 132.358 55.8836 132.651 56.1968C132.955 56.5002 133.106 56.9161 133.106 57.4447V62.1279H135.03V56.9895C135.03 56.3925 134.902 55.8689 134.648 55.4187C134.393 54.9587 134.036 54.6014 133.576 54.3469C133.126 54.0925 132.607 53.9652 132.02 53.9652C131.521 53.9652 131.071 54.0631 130.669 54.2589C130.278 54.4546 129.974 54.7433 129.759 55.125V54.1414H127.953V62.1279ZM140.444 62.3041C141.256 62.3041 141.966 62.123 142.572 61.7609C143.189 61.389 143.62 60.9192 143.864 60.3515L142.308 59.5881C142.132 59.8915 141.887 60.1411 141.574 60.3368C141.271 60.5228 140.899 60.6158 140.458 60.6158C139.881 60.6158 139.396 60.4396 139.005 60.0873C138.613 59.7349 138.388 59.2651 138.329 58.6779H144.084C144.124 58.5702 144.148 58.4479 144.158 58.3108C144.177 58.164 144.187 58.0172 144.187 57.8704C144.187 57.1559 144.036 56.5051 143.732 55.9178C143.429 55.3306 142.988 54.8608 142.411 54.5084C141.833 54.1463 141.129 53.9652 140.297 53.9652C139.553 53.9652 138.878 54.1463 138.271 54.5084C137.674 54.8706 137.199 55.3648 136.847 55.9912C136.504 56.6078 136.333 57.3174 136.333 58.12C136.333 58.8932 136.504 59.5979 136.847 60.2341C137.189 60.8702 137.669 61.3743 138.285 61.7462C138.902 62.1181 139.621 62.3041 140.444 62.3041ZM140.297 55.5508C140.806 55.5508 141.227 55.7074 141.559 56.0206C141.902 56.324 142.093 56.7204 142.132 57.2098H138.374C138.481 56.6812 138.706 56.2751 139.049 55.9912C139.401 55.6976 139.817 55.5508 140.297 55.5508ZM147.656 62.1279H149.359L151.239 56.74L153.088 62.1279H154.806L157.552 54.1414H155.526L153.852 59.1623L152.09 54.1414H150.387L148.611 59.177L146.937 54.1414H144.911L147.656 62.1279ZM165.062 62.3041C165.639 62.3041 166.172 62.2062 166.662 62.0105C167.151 61.8049 167.572 61.526 167.924 61.1737C168.277 60.8115 168.531 60.4053 168.688 59.9551L166.999 59.1917C166.843 59.6126 166.593 59.9453 166.251 60.19C165.918 60.4249 165.522 60.5424 165.062 60.5424C164.641 60.5424 164.264 60.4396 163.931 60.2341C163.608 60.0285 163.354 59.7447 163.168 59.3826C162.982 59.0106 162.889 58.5947 162.889 58.1347C162.889 57.6649 162.982 57.2489 163.168 56.8868C163.354 56.5246 163.608 56.2408 163.931 56.0353C164.264 55.8297 164.641 55.727 165.062 55.727C165.522 55.727 165.918 55.8493 166.251 56.094C166.593 56.3387 166.843 56.6617 166.999 57.063L168.688 56.3289C168.521 55.8591 168.262 55.448 167.91 55.0957C167.557 54.7336 167.137 54.4546 166.647 54.2589C166.158 54.0631 165.629 53.9652 165.062 53.9652C164.269 53.9652 163.554 54.1463 162.918 54.5084C162.292 54.8706 161.797 55.3648 161.435 55.9912C161.073 56.6176 160.892 57.3272 160.892 58.12C160.892 58.9128 161.073 59.6272 161.435 60.2634C161.797 60.8898 162.292 61.389 162.918 61.7609C163.554 62.123 164.269 62.3041 165.062 62.3041ZM170.147 62.1279H172.07V51.1905H170.147V62.1279ZM173.846 53.2459H175.769V51.1905H173.846V53.2459ZM173.846 62.1279H175.769V54.1414H173.846V62.1279ZM181.333 62.3041C182.145 62.3041 182.855 62.123 183.461 61.7609C184.078 61.389 184.509 60.9192 184.753 60.3515L183.197 59.5881C183.021 59.8915 182.776 60.1411 182.463 60.3368C182.16 60.5228 181.788 60.6158 181.347 60.6158C180.77 60.6158 180.285 60.4396 179.894 60.0873C179.502 59.7349 179.277 59.2651 179.219 58.6779H184.974C185.013 58.5702 185.037 58.4479 185.047 58.3108C185.067 58.164 185.076 58.0172 185.076 57.8704C185.076 57.1559 184.925 56.5051 184.621 55.9178C184.318 55.3306 183.877 54.8608 183.3 54.5084C182.723 54.1463 182.018 53.9652 181.186 53.9652C180.442 53.9652 179.767 54.1463 179.16 54.5084C178.563 54.8706 178.088 55.3648 177.736 55.9912C177.393 56.6078 177.222 57.3174 177.222 58.12C177.222 58.8932 177.393 59.5979 177.736 60.2341C178.078 60.8702 178.558 61.3743 179.175 61.7462C179.791 62.1181 180.511 62.3041 181.333 62.3041ZM181.186 55.5508C181.695 55.5508 182.116 55.7074 182.448 56.0206C182.791 56.324 182.982 56.7204 183.021 57.2098H179.263C179.37 56.6812 179.595 56.2751 179.938 55.9912C180.29 55.6976 180.706 55.5508 181.186 55.5508ZM186.534 62.1279H188.458V57.4447C188.458 56.9259 188.604 56.51 188.898 56.1968C189.201 55.8836 189.593 55.727 190.072 55.727C190.552 55.727 190.939 55.8836 191.232 56.1968C191.536 56.5002 191.687 56.9161 191.687 57.4447V62.1279H193.611V56.9895C193.611 56.3925 193.483 55.8689 193.229 55.4187C192.974 54.9587 192.617 54.6014 192.157 54.3469C191.707 54.0925 191.188 53.9652 190.601 53.9652C190.102 53.9652 189.652 54.0631 189.25 54.2589C188.859 54.4546 188.555 54.7433 188.34 55.125V54.1414H186.534V62.1279ZM198.878 62.216C199.201 62.216 199.519 62.1915 199.832 62.1426V60.4836C199.646 60.513 199.475 60.5277 199.318 60.5277C198.848 60.5277 198.506 60.42 198.291 60.2047C198.075 59.9894 197.968 59.6811 197.968 59.2798V55.8591H199.803V54.1414H197.968V52.321H196.044V52.9376C196.044 53.3291 195.937 53.6276 195.721 53.8331C195.506 54.0386 195.203 54.1414 194.811 54.1414H194.664V55.8591H196.044V59.3826C196.044 60.2732 196.289 60.9681 196.778 61.4673C197.278 61.9664 197.977 62.216 198.878 62.216ZM204.34 62.3041C204.947 62.3041 205.476 62.2013 205.926 61.9958C206.376 61.7903 206.729 61.5064 206.983 61.1443C207.237 60.7724 207.365 60.3466 207.365 59.867C207.365 59.3092 207.189 58.8296 206.836 58.4283C206.484 58.027 205.975 57.7334 205.309 57.5474L204.032 57.1657C203.758 57.0874 203.533 56.9847 203.357 56.8574C203.181 56.7302 203.093 56.554 203.093 56.3289C203.093 56.094 203.185 55.9031 203.371 55.7563C203.557 55.6095 203.812 55.5361 204.135 55.5361C204.536 55.5361 204.898 55.6438 205.221 55.8591C205.554 56.0744 205.784 56.3632 205.911 56.7253L207.379 56.0353C207.135 55.3893 206.724 54.8853 206.146 54.5231C205.569 54.1512 204.903 53.9652 204.15 53.9652C203.572 53.9652 203.058 54.068 202.608 54.2735C202.168 54.4791 201.82 54.7678 201.566 55.1397C201.321 55.5019 201.199 55.9276 201.199 56.417C201.199 56.9651 201.37 57.4398 201.712 57.841C202.065 58.2423 202.579 58.5408 203.254 58.7366L204.561 59.1036C204.815 59.1721 205.03 59.2749 205.207 59.4119C205.393 59.5392 205.486 59.7153 205.486 59.9404C205.486 60.2047 205.378 60.4151 205.163 60.5717C204.957 60.7185 204.683 60.7919 204.34 60.7919C203.89 60.7919 203.484 60.6647 203.122 60.4102C202.76 60.1558 202.471 59.8034 202.256 59.3532L200.817 60.0432C201.052 60.7283 201.482 61.2764 202.109 61.6875C202.745 62.0986 203.489 62.3041 204.34 62.3041Z" fill="white"/>
<rect x="101" y="75.2666" width="166.997" height="6.72884" rx="3.36442" fill="#DCF2ED"/>
<rect x="101" y="89.3362" width="111.332" height="6.72884" rx="3.36442" fill="#DCF2ED"/>
</g>
<defs>
<filter id="filter0_d_274_967" x="0.384239" y="0.915027" width="325.232" height="149.232" filterUnits="userSpaceOnUse" color-interpolation-filters="sRGB">
<feFlood flood-opacity="0" result="BackgroundImageFix"/>
<feColorMatrix in="SourceAlpha" type="matrix" values="0 0 0 0 0 0 0 0 0 0 0 0 0 0 0 0 0 0 127 0" result="hardAlpha"/>
<feOffset dy="1.53079"/>
<feGaussianBlur stdDeviation="15.3079"/>
<feComposite in2="hardAlpha" operator="out"/>
<feColorMatrix type="matrix" values="0 0 0 0 0.741667 0 0 0 0 0.741667 0 0 0 0 0.741667 0 0 0 0.11 0"/>
<feBlend mode="normal" in2="BackgroundImageFix" result="effect1_dropShadow_274_967"/>
<feBlend mode="normal" in="SourceGraphic" in2="effect1_dropShadow_274_967" result="shape"/>
</filter>
<filter id="filter1_d_274_967" x="6.5315" y="7.97835" width="312.937" height="136.937" filterUnits="userSpaceOnUse" color-interpolation-filters="sRGB">
<feFlood flood-opacity="0" result="BackgroundImageFix"/>
<feColorMatrix in="SourceAlpha" type="matrix" values="0 0 0 0 0 0 0 0 0 0 0 0 0 0 0 0 0 0 127 0" result="hardAlpha"/>
<feOffset dy="2.44685"/>
<feGaussianBlur stdDeviation="12.2342"/>
<feComposite in2="hardAlpha" operator="out"/>
<feColorMatrix type="matrix" values="0 0 0 0 0.541667 0 0 0 0 0.541667 0 0 0 0 0.541667 0 0 0 0.04 0"/>
<feBlend mode="normal" in2="BackgroundImageFix" result="effect1_dropShadow_274_967"/>
<feBlend mode="normal" in="SourceGraphic" in2="effect1_dropShadow_274_967" result="shape"/>
</filter>
</defs>
</svg>
