<svg width="314" height="393" viewBox="0 0 314 393" fill="none" xmlns="http://www.w3.org/2000/svg">
<g filter="url(#filter0_d_264_1044)">
<g filter="url(#filter1_d_264_1044)">
<rect x="46" y="43" width="222" height="302.232" rx="9.34737" fill="white"/>
</g>
<rect x="70.1475" y="293.821" width="178.379" height="28.8211" rx="6.23158" fill="#B8E4DA"/>
<circle cx="77.5475" cy="231.895" r="7.4" fill="#DCF2ED"/>
<g clip-path="url(#clip0_264_1044)">
<path d="M76.4762 233.384L74.9874 231.895L74.4805 232.398L76.4762 234.394L80.7604 230.11L80.257 229.607L76.4762 233.384Z" fill="#20484F"/>
</g>
<circle cx="77.5475" cy="207.748" r="7.4" fill="#DCF2ED"/>
<g clip-path="url(#clip1_264_1044)">
<path d="M76.4762 209.236L74.9874 207.747L74.4805 208.251L76.4762 210.247L80.7604 205.962L80.257 205.459L76.4762 209.236Z" fill="#20484F"/>
</g>
<circle cx="77.5475" cy="256.042" r="7.4" fill="#DCF2ED"/>
<g clip-path="url(#clip2_264_1044)">
<path d="M76.4762 257.531L74.9874 256.042L74.4805 256.545L76.4762 258.541L80.7604 254.257L80.257 253.753L76.4762 257.531Z" fill="#20484F"/>
</g>
<rect x="70.1475" y="144.263" width="121.516" height="8.56842" rx="4.28421" fill="#20484F" fill-opacity="0.1"/>
<rect x="70.1475" y="162.179" width="141.768" height="8.56842" rx="4.28421" fill="#20484F" fill-opacity="0.1"/>
<rect x="95.8533" y="227.61" width="62.3158" height="8.56842" rx="4.28421" fill="#20484F" fill-opacity="0.1"/>
<rect x="95.8533" y="251.758" width="103.6" height="8.56842" rx="4.28421" fill="#20484F" fill-opacity="0.1"/>
<rect x="95.8533" y="203.463" width="62.3158" height="8.56842" rx="4.28421" fill="#20484F" fill-opacity="0.1"/>
<path d="M74.8866 125.158C75.6063 125.158 76.2373 125.027 76.7794 124.765C77.3216 124.504 77.7469 124.144 78.0553 123.686C78.3638 123.228 78.518 122.7 78.518 122.101C78.518 120.709 77.6861 119.746 76.0223 119.213L74.1014 118.61C73.7275 118.489 73.4424 118.32 73.2461 118.105C73.0592 117.881 72.9657 117.624 72.9657 117.334C72.9657 116.951 73.1106 116.643 73.4003 116.409C73.6995 116.166 74.0921 116.044 74.5781 116.044C75.1203 116.044 75.597 116.189 76.0083 116.479C76.4195 116.759 76.728 117.161 76.9337 117.685L78.504 116.984C78.2236 116.199 77.7329 115.568 77.0318 115.091C76.3401 114.614 75.5222 114.376 74.5781 114.376C73.8958 114.376 73.2882 114.507 72.7554 114.768C72.2319 115.021 71.8206 115.376 71.5215 115.834C71.2318 116.292 71.0869 116.82 71.0869 117.418C71.0869 118.101 71.2925 118.694 71.7038 119.199C72.1151 119.694 72.7273 120.073 73.5406 120.335L75.5456 120.98C75.9101 121.101 76.1812 121.26 76.3588 121.456C76.5457 121.653 76.6392 121.905 76.6392 122.214C76.6392 122.597 76.485 122.905 76.1765 123.139C75.8774 123.373 75.4801 123.489 74.9847 123.489C74.3865 123.489 73.849 123.321 73.3723 122.985C72.8956 122.639 72.531 122.167 72.2787 121.569L70.6943 122.256C70.8812 122.835 71.1757 123.345 71.5776 123.784C71.9889 124.214 72.475 124.55 73.0358 124.793C73.606 125.036 74.2229 125.158 74.8866 125.158ZM83.5581 125.074C83.8665 125.074 84.1703 125.051 84.4694 125.004V123.419C84.2918 123.447 84.1282 123.461 83.9787 123.461C83.53 123.461 83.2029 123.359 82.9972 123.153C82.7916 122.947 82.6887 122.653 82.6887 122.27V119.003H84.4414V117.362H82.6887V115.624H80.852V116.213C80.852 116.586 80.7492 116.872 80.5435 117.068C80.3379 117.264 80.0481 117.362 79.6742 117.362H79.534V119.003H80.852V122.368C80.852 123.218 81.0857 123.882 81.553 124.359C82.0298 124.836 82.6981 125.074 83.5581 125.074ZM89.4217 125.158C90.1975 125.158 90.8752 124.985 91.4548 124.639C92.0436 124.284 92.4549 123.835 92.6886 123.293L91.2024 122.564C91.0341 122.854 90.8004 123.092 90.5013 123.279C90.2116 123.457 89.8564 123.546 89.4357 123.546C88.8842 123.546 88.4215 123.377 88.0476 123.041C87.6737 122.704 87.4588 122.256 87.4027 121.695H92.8989C92.9363 121.592 92.9597 121.475 92.969 121.344C92.9877 121.204 92.9971 121.064 92.9971 120.924C92.9971 120.241 92.8522 119.62 92.5624 119.059C92.2726 118.498 91.852 118.049 91.3005 117.713C90.749 117.367 90.076 117.194 89.2815 117.194C88.5711 117.194 87.9261 117.367 87.3466 117.713C86.7764 118.059 86.323 118.531 85.9865 119.129C85.6594 119.718 85.4958 120.396 85.4958 121.162C85.4958 121.9 85.6594 122.573 85.9865 123.181C86.3137 123.789 86.7717 124.27 87.3606 124.625C87.9495 124.98 88.6365 125.158 89.4217 125.158ZM89.2815 118.708C89.7676 118.708 90.1695 118.858 90.4873 119.157C90.8145 119.447 90.9967 119.825 91.0341 120.293H87.4447C87.5476 119.788 87.7625 119.4 88.0897 119.129C88.4262 118.849 88.8235 118.708 89.2815 118.708ZM94.3894 127.794H96.2262V124.261C96.5066 124.55 96.8478 124.775 97.2497 124.934C97.6517 125.083 98.0863 125.158 98.5537 125.158C99.2921 125.158 99.9511 124.985 100.531 124.639C101.11 124.284 101.568 123.807 101.905 123.209C102.241 122.601 102.409 121.924 102.409 121.176C102.409 120.428 102.241 119.755 101.905 119.157C101.568 118.549 101.11 118.073 100.531 117.727C99.9511 117.372 99.2968 117.194 98.5677 117.194C98.0442 117.194 97.5722 117.288 97.1516 117.474C96.7309 117.661 96.3851 117.923 96.114 118.26V117.362H94.3894V127.794ZM98.3434 123.475C97.9414 123.475 97.5769 123.377 97.2497 123.181C96.9319 122.985 96.6795 122.714 96.4926 122.368C96.315 122.022 96.2262 121.625 96.2262 121.176C96.2262 120.727 96.315 120.33 96.4926 119.984C96.6795 119.638 96.9319 119.367 97.2497 119.171C97.5769 118.975 97.9414 118.877 98.3434 118.877C98.764 118.877 99.1332 118.979 99.451 119.185C99.7782 119.381 100.035 119.652 100.222 119.998C100.409 120.344 100.503 120.737 100.503 121.176C100.503 121.615 100.409 122.013 100.222 122.368C100.035 122.714 99.7782 122.985 99.451 123.181C99.1332 123.377 98.764 123.475 98.3434 123.475ZM110.031 125.158C110.77 125.158 111.443 124.99 112.05 124.653C112.658 124.307 113.144 123.835 113.509 123.237C113.873 122.63 114.055 121.943 114.055 121.176C114.055 120.41 113.873 119.727 113.509 119.129C113.153 118.531 112.672 118.059 112.064 117.713C111.457 117.367 110.779 117.194 110.031 117.194C109.274 117.194 108.592 117.367 107.984 117.713C107.377 118.059 106.891 118.531 106.526 119.129C106.171 119.727 105.993 120.41 105.993 121.176C105.993 121.943 106.171 122.625 106.526 123.223C106.891 123.821 107.377 124.293 107.984 124.639C108.601 124.985 109.284 125.158 110.031 125.158ZM110.031 123.475C109.62 123.475 109.251 123.377 108.924 123.181C108.606 122.985 108.354 122.714 108.167 122.368C107.989 122.013 107.9 121.615 107.9 121.176C107.9 120.737 107.989 120.344 108.167 119.998C108.354 119.652 108.606 119.381 108.924 119.185C109.251 118.979 109.62 118.877 110.031 118.877C110.443 118.877 110.803 118.979 111.111 119.185C111.429 119.381 111.677 119.652 111.854 119.998C112.041 120.344 112.135 120.737 112.135 121.176C112.135 121.615 112.041 122.013 111.854 122.368C111.677 122.714 111.429 122.985 111.111 123.181C110.803 123.377 110.443 123.475 110.031 123.475ZM115.448 124.99H117.285V120.517C117.285 120.022 117.425 119.624 117.706 119.325C117.996 119.026 118.369 118.877 118.827 118.877C119.285 118.877 119.655 119.026 119.935 119.325C120.225 119.615 120.37 120.012 120.37 120.517V124.99H122.207V120.082C122.207 119.512 122.085 119.012 121.842 118.582C121.599 118.143 121.258 117.802 120.818 117.559C120.388 117.316 119.893 117.194 119.332 117.194C118.856 117.194 118.426 117.288 118.042 117.474C117.668 117.661 117.379 117.937 117.173 118.302V117.362H115.448V124.99ZM127.377 125.158C128.153 125.158 128.831 124.985 129.41 124.639C129.999 124.284 130.41 123.835 130.644 123.293L129.158 122.564C128.99 122.854 128.756 123.092 128.457 123.279C128.167 123.457 127.812 123.546 127.391 123.546C126.84 123.546 126.377 123.377 126.003 123.041C125.629 122.704 125.414 122.256 125.358 121.695H130.854C130.892 121.592 130.915 121.475 130.924 121.344C130.943 121.204 130.953 121.064 130.953 120.924C130.953 120.241 130.808 119.62 130.518 119.059C130.228 118.498 129.807 118.049 129.256 117.713C128.704 117.367 128.031 117.194 127.237 117.194C126.527 117.194 125.882 117.367 125.302 117.713C124.732 118.059 124.278 118.531 123.942 119.129C123.615 119.718 123.451 120.396 123.451 121.162C123.451 121.9 123.615 122.573 123.942 123.181C124.269 123.789 124.727 124.27 125.316 124.625C125.905 124.98 126.592 125.158 127.377 125.158ZM127.237 118.708C127.723 118.708 128.125 118.858 128.443 119.157C128.77 119.447 128.952 119.825 128.99 120.293H125.4C125.503 119.788 125.718 119.4 126.045 119.129C126.382 118.849 126.779 118.708 127.237 118.708Z" fill="#20484F"/>
<path d="M71.4935 81.6948H74.036V76.5538H76.6906C77.6378 76.5538 78.4729 76.3855 79.1957 76.049C79.9186 75.7 80.4857 75.1953 80.8969 74.5347C81.3207 73.8742 81.5326 73.0828 81.5326 72.1605C81.5326 71.2133 81.3269 70.4157 80.9156 69.7676C80.5043 69.1195 79.931 68.6272 79.1957 68.2907C78.4729 67.9417 77.6378 67.7672 76.6906 67.7672H71.4935V81.6948ZM74.036 74.3104V70.0106H76.728C77.4135 70.0106 77.9619 70.2038 78.3731 70.5901C78.7844 70.9765 78.9901 71.5 78.9901 72.1605C78.9901 72.8086 78.7844 73.332 78.3731 73.7309C77.9619 74.1172 77.4135 74.3104 76.728 74.3104H74.036ZM83.4102 81.6948H85.8592V76.0303C85.8592 75.2576 86.0711 74.6594 86.4948 74.2356C86.9311 73.7994 87.4919 73.5813 88.1774 73.5813H89.056V71.4127H88.4578C87.8346 71.4127 87.2863 71.5249 86.8127 71.7492C86.3391 71.9736 85.9714 72.3786 85.7097 72.9644V71.5249H83.4102V81.6948ZM95.3753 81.9192C96.3599 81.9192 97.2572 81.6948 98.0673 81.2462C98.8774 80.785 99.5255 80.1556 100.012 79.358C100.498 78.5479 100.741 77.6318 100.741 76.6099C100.741 75.5879 100.498 74.6781 100.012 73.8804C99.538 73.0828 98.8961 72.4534 98.086 71.9923C97.2759 71.5311 96.3723 71.3005 95.3753 71.3005C94.3658 71.3005 93.456 71.5311 92.6459 71.9923C91.8357 72.4534 91.1877 73.0828 90.7016 73.8804C90.228 74.6781 89.9912 75.5879 89.9912 76.6099C89.9912 77.6318 90.228 78.5416 90.7016 79.3393C91.1877 80.1369 91.8357 80.7663 92.6459 81.2275C93.4684 81.6886 94.3782 81.9192 95.3753 81.9192ZM95.3753 79.6758C94.8269 79.6758 94.3346 79.5449 93.8984 79.2832C93.4747 79.0215 93.1381 78.66 92.8889 78.1989C92.6521 77.7253 92.5337 77.1956 92.5337 76.6099C92.5337 76.0241 92.6521 75.5006 92.8889 75.0395C93.1381 74.5784 93.4747 74.2169 93.8984 73.9552C94.3346 73.681 94.8269 73.5439 95.3753 73.5439C95.9237 73.5439 96.4035 73.681 96.8148 73.9552C97.2385 74.2169 97.5688 74.5784 97.8056 75.0395C98.0549 75.5006 98.1795 76.0241 98.1795 76.6099C98.1795 77.1956 98.0549 77.7253 97.8056 78.1989C97.5688 78.66 97.2385 79.0215 96.8148 79.2832C96.4035 79.5449 95.9237 79.6758 95.3753 79.6758ZM102.598 70.3845H105.047V67.7672H102.598V70.3845ZM101.196 85.8264C102.38 85.8264 103.315 85.5148 104 84.8916C104.698 84.2685 105.047 83.3774 105.047 82.2183V71.5249H102.598V82.2183C102.598 82.7043 102.448 83.0658 102.149 83.3026C101.863 83.5518 101.458 83.6765 100.934 83.6765C100.697 83.6765 100.473 83.6578 100.261 83.6204V85.7516C100.373 85.7765 100.517 85.7952 100.691 85.8077C100.866 85.8201 101.034 85.8264 101.196 85.8264ZM112.131 81.9192C113.166 81.9192 114.069 81.6886 114.842 81.2275C115.627 80.7539 116.176 80.1556 116.487 79.4328L114.506 78.4606C114.281 78.847 113.97 79.1648 113.571 79.4141C113.184 79.6509 112.711 79.7693 112.15 79.7693C111.415 79.7693 110.798 79.5449 110.299 79.0963C109.801 78.6476 109.514 78.0493 109.439 77.3016H116.768C116.817 77.1645 116.849 77.0087 116.861 76.8342C116.886 76.6472 116.898 76.4603 116.898 76.2733C116.898 75.3635 116.705 74.5347 116.319 73.7869C115.933 73.0392 115.372 72.4409 114.636 71.9923C113.901 71.5311 113.004 71.3005 111.944 71.3005C110.997 71.3005 110.137 71.5311 109.364 71.9923C108.604 72.4534 108 73.0828 107.551 73.8804C107.115 74.6656 106.897 75.5692 106.897 76.5912C106.897 77.5757 107.115 78.4731 107.551 79.2832C107.987 80.0933 108.598 80.7352 109.383 81.2088C110.168 81.6824 111.084 81.9192 112.131 81.9192ZM111.944 73.3196C112.592 73.3196 113.128 73.519 113.552 73.9178C113.988 74.3042 114.231 74.8089 114.281 75.4321H109.495C109.632 74.7591 109.919 74.2419 110.355 73.8804C110.804 73.5065 111.334 73.3196 111.944 73.3196ZM123.653 81.9192C124.388 81.9192 125.068 81.7945 125.691 81.5453C126.314 81.2835 126.85 80.9283 127.298 80.4797C127.747 80.0185 128.071 79.5013 128.271 78.928L126.121 77.9559C125.921 78.4918 125.603 78.9155 125.167 79.2271C124.744 79.5262 124.239 79.6758 123.653 79.6758C123.117 79.6758 122.637 79.5449 122.213 79.2832C121.802 79.0215 121.478 78.66 121.241 78.1989C121.005 77.7253 120.886 77.1956 120.886 76.6099C120.886 76.0116 121.005 75.4819 121.241 75.0208C121.478 74.5597 121.802 74.1982 122.213 73.9365C122.637 73.6748 123.117 73.5439 123.653 73.5439C124.239 73.5439 124.744 73.6997 125.167 74.0113C125.603 74.3229 125.921 74.7341 126.121 75.2451L128.271 74.3104C128.059 73.7122 127.728 73.1887 127.28 72.74C126.831 72.2789 126.295 71.9237 125.672 71.6744C125.049 71.4252 124.376 71.3005 123.653 71.3005C122.643 71.3005 121.734 71.5311 120.924 71.9923C120.126 72.4534 119.497 73.0828 119.035 73.8804C118.574 74.6781 118.344 75.5816 118.344 76.5912C118.344 77.6007 118.574 78.5105 119.035 79.3206C119.497 80.1182 120.126 80.7539 120.924 81.2275C121.734 81.6886 122.643 81.9192 123.653 81.9192ZM134.765 81.807C135.176 81.807 135.581 81.7758 135.98 81.7135V79.601C135.743 79.6384 135.525 79.6571 135.326 79.6571C134.728 79.6571 134.292 79.52 134.017 79.2458C133.743 78.9716 133.606 78.579 133.606 78.068V73.7122H135.943V71.5249H133.606V69.2067H131.157V69.9919C131.157 70.4904 131.02 70.8706 130.746 71.1323C130.472 71.394 130.085 71.5249 129.587 71.5249H129.4V73.7122H131.157V78.1989C131.157 79.3331 131.469 80.2179 132.092 80.8536C132.727 81.4892 133.618 81.807 134.765 81.807ZM148.241 81.9192C149.275 81.9192 150.235 81.7384 151.12 81.377C152.005 81.0156 152.777 80.5108 153.438 79.8627C154.098 79.2147 154.609 78.4544 154.971 77.582C155.345 76.6971 155.532 75.7437 155.532 74.7217C155.532 73.6872 155.345 72.7338 154.971 71.8614C154.609 70.989 154.098 70.2349 153.438 69.5993C152.777 68.9512 152.005 68.4465 151.12 68.0851C150.235 67.7236 149.275 67.5429 148.241 67.5429C147.206 67.5429 146.247 67.7236 145.362 68.0851C144.477 68.4465 143.704 68.9512 143.044 69.5993C142.395 70.2349 141.884 70.989 141.511 71.8614C141.149 72.7338 140.968 73.6872 140.968 74.7217C140.968 75.7437 141.149 76.6971 141.511 77.582C141.884 78.4544 142.402 79.2147 143.062 79.8627C143.723 80.5108 144.495 81.0156 145.38 81.377C146.265 81.7384 147.219 81.9192 148.241 81.9192ZM148.241 79.601C147.343 79.601 146.533 79.3891 145.81 78.9654C145.1 78.5416 144.539 77.9621 144.128 77.2268C143.717 76.4915 143.511 75.6564 143.511 74.7217C143.511 73.7869 143.717 72.9581 144.128 72.2353C144.539 71.5 145.1 70.9204 145.81 70.4967C146.533 70.0729 147.343 69.8611 148.241 69.8611C149.15 69.8611 149.961 70.0729 150.671 70.4967C151.381 70.9204 151.942 71.5 152.353 72.2353C152.765 72.9581 152.97 73.7869 152.97 74.7217C152.97 75.6564 152.765 76.4915 152.353 77.2268C151.942 77.9621 151.381 78.5416 150.671 78.9654C149.961 79.3891 149.15 79.601 148.241 79.601ZM160.653 81.6948H162.821L166.822 71.5249H164.149L161.737 78.1615L159.325 71.5249H156.652L160.653 81.6948ZM172.816 81.9192C173.851 81.9192 174.754 81.6886 175.527 81.2275C176.312 80.7539 176.86 80.1556 177.172 79.4328L175.19 78.4606C174.966 78.847 174.655 79.1648 174.256 79.4141C173.869 79.6509 173.396 79.7693 172.835 79.7693C172.1 79.7693 171.483 79.5449 170.984 79.0963C170.486 78.6476 170.199 78.0493 170.124 77.3016H177.452C177.502 77.1645 177.534 77.0087 177.546 76.8342C177.571 76.6472 177.583 76.4603 177.583 76.2733C177.583 75.3635 177.39 74.5347 177.004 73.7869C176.617 73.0392 176.057 72.4409 175.321 71.9923C174.586 71.5311 173.689 71.3005 172.629 71.3005C171.682 71.3005 170.822 71.5311 170.049 71.9923C169.289 72.4534 168.685 73.0828 168.236 73.8804C167.8 74.6656 167.582 75.5692 167.582 76.5912C167.582 77.5757 167.8 78.4731 168.236 79.2832C168.672 80.0933 169.283 80.7352 170.068 81.2088C170.853 81.6824 171.769 81.9192 172.816 81.9192ZM172.629 73.3196C173.277 73.3196 173.813 73.519 174.237 73.9178C174.673 74.3042 174.916 74.8089 174.966 75.4321H170.18C170.317 74.7591 170.604 74.2419 171.04 73.8804C171.489 73.5065 172.019 73.3196 172.629 73.3196ZM179.44 81.6948H181.889V76.0303C181.889 75.2576 182.101 74.6594 182.524 74.2356C182.961 73.7994 183.522 73.5813 184.207 73.5813H185.086V71.4127H184.487C183.864 71.4127 183.316 71.5249 182.842 71.7492C182.369 71.9736 182.001 72.3786 181.739 72.9644V71.5249H179.44V81.6948ZM189.498 81.6948H191.667L195.667 71.5249H192.994L190.582 78.1615L188.171 71.5249H185.497L189.498 81.6948ZM197.021 70.3845H199.47V67.7672H197.021V70.3845ZM197.021 81.6948H199.47V71.5249H197.021V81.6948ZM206.554 81.9192C207.589 81.9192 208.492 81.6886 209.265 81.2275C210.05 80.7539 210.599 80.1556 210.91 79.4328L208.929 78.4606C208.704 78.847 208.393 79.1648 207.994 79.4141C207.608 79.6509 207.134 79.7693 206.573 79.7693C205.838 79.7693 205.221 79.5449 204.722 79.0963C204.224 78.6476 203.937 78.0493 203.862 77.3016H211.191C211.241 77.1645 211.272 77.0087 211.284 76.8342C211.309 76.6472 211.322 76.4603 211.322 76.2733C211.322 75.3635 211.128 74.5347 210.742 73.7869C210.356 73.0392 209.795 72.4409 209.059 71.9923C208.324 71.5311 207.427 71.3005 206.367 71.3005C205.42 71.3005 204.56 71.5311 203.788 71.9923C203.027 72.4534 202.423 73.0828 201.974 73.8804C201.538 74.6656 201.32 75.5692 201.32 76.5912C201.32 77.5757 201.538 78.4731 201.974 79.2832C202.41 80.0933 203.021 80.7352 203.806 81.2088C204.591 81.6824 205.507 81.9192 206.554 81.9192ZM206.367 73.3196C207.016 73.3196 207.551 73.519 207.975 73.9178C208.411 74.3042 208.654 74.8089 208.704 75.4321H203.918C204.056 74.7591 204.342 74.2419 204.778 73.8804C205.227 73.5065 205.757 73.3196 206.367 73.3196ZM215.739 81.6948H217.908L220.301 74.8339L222.656 81.6948H224.844L228.339 71.5249H225.76L223.628 77.9185L221.385 71.5249H219.216L216.954 77.9372L214.823 71.5249H212.243L215.739 81.6948Z" fill="#20484F"/>
</g>
<defs>
<filter id="filter0_d_264_1044" x="0.890804" y="0.146264" width="312.218" height="392.45" filterUnits="userSpaceOnUse" color-interpolation-filters="sRGB">
<feFlood flood-opacity="0" result="BackgroundImageFix"/>
<feColorMatrix in="SourceAlpha" type="matrix" values="0 0 0 0 0 0 0 0 0 0 0 0 0 0 0 0 0 0 127 0" result="hardAlpha"/>
<feOffset dy="2.25546"/>
<feGaussianBlur stdDeviation="22.5546"/>
<feComposite in2="hardAlpha" operator="out"/>
<feColorMatrix type="matrix" values="0 0 0 0 0.741667 0 0 0 0 0.741667 0 0 0 0 0.741667 0 0 0 0.11 0"/>
<feBlend mode="normal" in2="BackgroundImageFix" result="effect1_dropShadow_264_1044"/>
<feBlend mode="normal" in="SourceGraphic" in2="effect1_dropShadow_264_1044" result="shape"/>
</filter>
<filter id="filter1_d_264_1044" x="14.8421" y="14.9579" width="284.316" height="364.547" filterUnits="userSpaceOnUse" color-interpolation-filters="sRGB">
<feFlood flood-opacity="0" result="BackgroundImageFix"/>
<feColorMatrix in="SourceAlpha" type="matrix" values="0 0 0 0 0 0 0 0 0 0 0 0 0 0 0 0 0 0 127 0" result="hardAlpha"/>
<feOffset dy="3.11579"/>
<feGaussianBlur stdDeviation="15.5789"/>
<feComposite in2="hardAlpha" operator="out"/>
<feColorMatrix type="matrix" values="0 0 0 0 0.541667 0 0 0 0 0.541667 0 0 0 0 0.541667 0 0 0 0.04 0"/>
<feBlend mode="normal" in2="BackgroundImageFix" result="effect1_dropShadow_264_1044"/>
<feBlend mode="normal" in="SourceGraphic" in2="effect1_dropShadow_264_1044" result="shape"/>
</filter>
<clipPath id="clip0_264_1044">
<rect width="8.56842" height="8.56842" fill="white" transform="translate(73.2632 227.61)"/>
</clipPath>
<clipPath id="clip1_264_1044">
<rect width="8.56842" height="8.56842" fill="white" transform="translate(73.2632 203.463)"/>
</clipPath>
<clipPath id="clip2_264_1044">
<rect width="8.56842" height="8.56842" fill="white" transform="translate(73.2632 251.758)"/>
</clipPath>
</defs>
</svg>
