<svg width="450" height="216" viewBox="0 0 450 216" fill="none" xmlns="http://www.w3.org/2000/svg">
<g filter="url(#filter0_d_264_1025)">
<g filter="url(#filter1_d_264_1025)">
<rect x="43" y="41" width="364.506" height="129.94" rx="10.1252" fill="white"/>
</g>
<circle cx="96.1572" cy="91.626" r="27.0005" fill="#DCF2ED"/>
<g clip-path="url(#clip0_264_1025)">
<path d="M92.5721 96.6111L87.5875 91.6265L85.8901 93.3119L92.5721 99.9939L106.916 85.6499L105.231 83.9644L92.5721 96.6111Z" fill="#20484F"/>
</g>
<path d="M144.246 85.6256H147V80.0567H149.876C150.902 80.0567 151.806 79.8745 152.589 79.51C153.372 79.132 153.987 78.5852 154.432 77.8697C154.891 77.1542 155.121 76.2969 155.121 75.2979C155.121 74.2719 154.898 73.4078 154.452 72.7058C154.007 72.0038 153.386 71.4706 152.589 71.1061C151.806 70.7281 150.902 70.539 149.876 70.539H144.246V85.6256ZM147 77.6267V72.9691H149.916C150.659 72.9691 151.253 73.1783 151.698 73.5969C152.144 74.0154 152.367 74.5824 152.367 75.2979C152.367 75.9999 152.144 76.5669 151.698 76.9989C151.253 77.4174 150.659 77.6267 149.916 77.6267H147ZM157.155 85.6256H159.807V79.4897C159.807 78.6527 160.037 78.0047 160.496 77.5457C160.968 77.0732 161.576 76.8369 162.318 76.8369H163.27V74.4879H162.622C161.947 74.4879 161.353 74.6094 160.84 74.8524C160.327 75.0954 159.929 75.5341 159.645 76.1686V74.6094H157.155V85.6256ZM170.115 85.8686C171.182 85.8686 172.154 85.6256 173.031 85.1396C173.909 84.6401 174.611 83.9583 175.137 83.0943C175.664 82.2168 175.927 81.2245 175.927 80.1175C175.927 79.0104 175.664 78.0249 175.137 77.1609C174.624 76.2969 173.929 75.6151 173.052 75.1156C172.174 74.6161 171.195 74.3664 170.115 74.3664C169.022 74.3664 168.036 74.6161 167.159 75.1156C166.281 75.6151 165.579 76.2969 165.053 77.1609C164.54 78.0249 164.283 79.0104 164.283 80.1175C164.283 81.2245 164.54 82.21 165.053 83.074C165.579 83.938 166.281 84.6198 167.159 85.1193C168.05 85.6188 169.035 85.8686 170.115 85.8686ZM170.115 83.4385C169.521 83.4385 168.988 83.2968 168.515 83.0133C168.056 82.7298 167.692 82.3383 167.422 81.8388C167.165 81.3257 167.037 80.752 167.037 80.1175C167.037 79.483 167.165 78.9159 167.422 78.4164C167.692 77.9169 168.056 77.5254 168.515 77.2419C168.988 76.9449 169.521 76.7964 170.115 76.7964C170.709 76.7964 171.229 76.9449 171.675 77.2419C172.134 77.5254 172.491 77.9169 172.748 78.4164C173.018 78.9159 173.153 79.483 173.153 80.1175C173.153 80.752 173.018 81.3257 172.748 81.8388C172.491 82.3383 172.134 82.7298 171.675 83.0133C171.229 83.2968 170.709 83.4385 170.115 83.4385ZM177.939 73.3741H180.592V70.539H177.939V73.3741ZM176.42 90.1009C177.703 90.1009 178.715 89.7634 179.458 89.0884C180.214 88.4134 180.592 87.4481 180.592 86.1926V74.6094H177.939V86.1926C177.939 86.7191 177.777 87.1106 177.453 87.3671C177.142 87.6371 176.704 87.7721 176.137 87.7721C175.88 87.7721 175.637 87.7519 175.408 87.7114V90.0199C175.529 90.0469 175.684 90.0671 175.873 90.0806C176.062 90.0941 176.245 90.1009 176.42 90.1009ZM188.266 85.8686C189.386 85.8686 190.365 85.6188 191.202 85.1193C192.052 84.6063 192.646 83.9583 192.984 83.1753L190.837 82.1223C190.594 82.5408 190.257 82.885 189.825 83.155C189.406 83.4115 188.893 83.5398 188.286 83.5398C187.489 83.5398 186.821 83.2968 186.281 82.8108C185.741 82.3248 185.431 81.6767 185.35 80.8667H193.288C193.342 80.7182 193.375 80.5495 193.389 80.3605C193.416 80.158 193.429 79.9555 193.429 79.753C193.429 78.7674 193.22 77.8697 192.802 77.0597C192.383 76.2497 191.776 75.6016 190.979 75.1156C190.183 74.6161 189.211 74.3664 188.063 74.3664C187.037 74.3664 186.106 74.6161 185.269 75.1156C184.445 75.6151 183.79 76.2969 183.304 77.1609C182.832 78.0114 182.595 78.9902 182.595 80.0972C182.595 81.1637 182.832 82.1358 183.304 83.0133C183.777 83.8908 184.438 84.586 185.289 85.0991C186.139 85.6121 187.132 85.8686 188.266 85.8686ZM188.063 76.5534C188.765 76.5534 189.346 76.7694 189.805 77.2014C190.277 77.6199 190.54 78.1667 190.594 78.8417H185.41C185.559 78.1127 185.869 77.5524 186.342 77.1609C186.828 76.7559 187.402 76.5534 188.063 76.5534ZM200.746 85.8686C201.542 85.8686 202.278 85.7336 202.953 85.4636C203.628 85.1801 204.209 84.7953 204.695 84.3093C205.181 83.8098 205.532 83.2495 205.748 82.6285L203.419 81.5755C203.203 82.156 202.859 82.615 202.386 82.9525C201.927 83.2765 201.38 83.4385 200.746 83.4385C200.165 83.4385 199.646 83.2968 199.187 83.0133C198.741 82.7298 198.39 82.3383 198.134 81.8388C197.877 81.3257 197.749 80.752 197.749 80.1175C197.749 79.4695 197.877 78.8957 198.134 78.3962C198.39 77.8967 198.741 77.5052 199.187 77.2217C199.646 76.9382 200.165 76.7964 200.746 76.7964C201.38 76.7964 201.927 76.9652 202.386 77.3027C202.859 77.6402 203.203 78.0857 203.419 78.6392L205.748 77.6267C205.518 76.9787 205.161 76.4117 204.675 75.9256C204.189 75.4261 203.608 75.0414 202.933 74.7714C202.258 74.5014 201.529 74.3664 200.746 74.3664C199.652 74.3664 198.667 74.6161 197.789 75.1156C196.925 75.6151 196.244 76.2969 195.744 77.1609C195.245 78.0249 194.995 79.0037 194.995 80.0972C194.995 81.1907 195.245 82.1763 195.744 83.0538C196.244 83.9178 196.925 84.6063 197.789 85.1193C198.667 85.6188 199.652 85.8686 200.746 85.8686ZM212.783 85.7471C213.228 85.7471 213.667 85.7133 214.099 85.6458V83.3575C213.843 83.398 213.606 83.4183 213.39 83.4183C212.742 83.4183 212.27 83.2698 211.973 82.9728C211.676 82.6758 211.527 82.2505 211.527 81.697V76.9787H214.059V74.6094H211.527V72.0983H208.874V72.9488C208.874 73.4889 208.726 73.9006 208.429 74.1841C208.132 74.4676 207.713 74.6094 207.173 74.6094H206.971V76.9787H208.874V81.8388C208.874 83.0673 209.212 84.0258 209.887 84.7143C210.575 85.4028 211.541 85.7471 212.783 85.7471ZM225.76 85.8686C226.921 85.8686 227.947 85.6256 228.838 85.1396C229.742 84.6536 230.451 83.9853 230.964 83.1348C231.477 82.2843 231.733 81.319 231.733 80.239V70.539H228.979V80.0972C228.979 80.7317 228.838 81.2987 228.554 81.7982C228.284 82.2843 227.906 82.669 227.42 82.9525C226.948 83.2225 226.394 83.3575 225.76 83.3575C225.139 83.3575 224.585 83.2225 224.099 82.9525C223.613 82.669 223.228 82.2843 222.945 81.7982C222.675 81.2987 222.54 80.7317 222.54 80.0972V70.539H219.786V80.239C219.786 81.319 220.042 82.2843 220.555 83.1348C221.068 83.9853 221.77 84.6536 222.661 85.1396C223.566 85.6256 224.599 85.8686 225.76 85.8686ZM234.26 89.6756H236.913V84.5725C237.318 84.9911 237.811 85.3151 238.391 85.5446C238.972 85.7606 239.599 85.8686 240.275 85.8686C241.341 85.8686 242.293 85.6188 243.13 85.1193C243.967 84.6063 244.628 83.9178 245.114 83.0538C245.6 82.1763 245.843 81.1975 245.843 80.1175C245.843 79.0375 245.6 78.0654 245.114 77.2014C244.628 76.3239 243.967 75.6354 243.13 75.1359C242.293 74.6229 241.348 74.3664 240.295 74.3664C239.539 74.3664 238.857 74.5014 238.249 74.7714C237.642 75.0414 237.142 75.4194 236.751 75.9054V74.6094H234.26V89.6756ZM239.971 83.4385C239.39 83.4385 238.864 83.2968 238.391 83.0133C237.932 82.7298 237.568 82.3383 237.298 81.8388C237.041 81.3392 236.913 80.7655 236.913 80.1175C236.913 79.4695 237.041 78.8957 237.298 78.3962C237.568 77.8967 237.932 77.5052 238.391 77.2217C238.864 76.9382 239.39 76.7964 239.971 76.7964C240.578 76.7964 241.112 76.9449 241.571 77.2419C242.043 77.5254 242.414 77.9169 242.684 78.4164C242.954 78.9159 243.089 79.483 243.089 80.1175C243.089 80.752 242.954 81.3257 242.684 81.8388C242.414 82.3383 242.043 82.7298 241.571 83.0133C241.112 83.2968 240.578 83.4385 239.971 83.4385ZM252.989 85.8686C253.705 85.8686 254.366 85.7471 254.974 85.5041C255.581 85.2476 256.088 84.8831 256.493 84.4105V85.6256H259.004V70.539H256.351V75.7231C255.527 74.8186 254.4 74.3664 252.969 74.3664C251.929 74.3664 250.984 74.6229 250.134 75.1359C249.297 75.6354 248.635 76.3239 248.149 77.2014C247.663 78.0654 247.42 79.0375 247.42 80.1175C247.42 81.1975 247.663 82.1763 248.149 83.0538C248.635 83.9178 249.297 84.6063 250.134 85.1193C250.971 85.6188 251.923 85.8686 252.989 85.8686ZM253.273 83.4385C252.679 83.4385 252.145 83.2968 251.673 83.0133C251.2 82.7298 250.829 82.3383 250.559 81.8388C250.303 81.3257 250.174 80.752 250.174 80.1175C250.174 79.483 250.303 78.9159 250.559 78.4164C250.829 77.9169 251.2 77.5254 251.673 77.2419C252.145 76.9449 252.679 76.7964 253.273 76.7964C253.867 76.7964 254.393 76.9382 254.852 77.2217C255.325 77.5052 255.689 77.8967 255.946 78.3962C256.216 78.8957 256.351 79.4695 256.351 80.1175C256.351 80.7655 256.216 81.3392 255.946 81.8388C255.689 82.3383 255.325 82.7298 254.852 83.0133C254.393 83.2968 253.867 83.4385 253.273 83.4385ZM264.813 85.8686C266.244 85.8686 267.391 85.3961 268.255 84.451V85.6256H270.766V78.2949C270.766 77.5254 270.571 76.8437 270.179 76.2497C269.788 75.6556 269.248 75.1966 268.559 74.8726C267.884 74.5351 267.094 74.3664 266.19 74.3664C265.083 74.3664 264.097 74.6296 263.233 75.1561C262.369 75.6826 261.775 76.3779 261.451 77.2419L263.618 78.2949C263.821 77.7954 264.138 77.3972 264.57 77.1002C265.002 76.7897 265.508 76.6344 266.089 76.6344C266.696 76.6344 267.182 76.7964 267.547 77.1204C267.925 77.4309 268.114 77.8224 268.114 78.2949V78.6594L264.833 79.186C263.537 79.402 262.579 79.8137 261.958 80.4212C261.337 81.0287 261.026 81.7915 261.026 82.7095C261.026 83.6815 261.37 84.451 262.059 85.0181C262.747 85.5851 263.665 85.8686 264.813 85.8686ZM263.78 82.6083C263.78 81.8388 264.3 81.3527 265.339 81.1502L268.114 80.6845V81.13C268.114 81.886 267.85 82.5273 267.324 83.0538C266.811 83.5803 266.136 83.8435 265.299 83.8435C264.853 83.8435 264.489 83.7355 264.205 83.5195C263.922 83.29 263.78 82.9863 263.78 82.6083ZM278.043 85.7471C278.488 85.7471 278.927 85.7133 279.359 85.6458V83.3575C279.102 83.398 278.866 83.4183 278.65 83.4183C278.002 83.4183 277.53 83.2698 277.233 82.9728C276.936 82.6758 276.787 82.2505 276.787 81.697V76.9787H279.318V74.6094H276.787V72.0983H274.134V72.9488C274.134 73.4889 273.986 73.9006 273.689 74.1841C273.392 74.4676 272.973 74.6094 272.433 74.6094H272.231V76.9787H274.134V81.8388C274.134 83.0673 274.472 84.0258 275.147 84.7143C275.835 85.4028 276.801 85.7471 278.043 85.7471ZM286.511 85.8686C287.632 85.8686 288.611 85.6188 289.448 85.1193C290.298 84.6063 290.892 83.9583 291.23 83.1753L289.083 82.1223C288.84 82.5408 288.503 82.885 288.071 83.155C287.652 83.4115 287.139 83.5398 286.532 83.5398C285.735 83.5398 285.067 83.2968 284.527 82.8108C283.987 82.3248 283.676 81.6767 283.595 80.8667H291.534C291.588 80.7182 291.621 80.5495 291.635 80.3605C291.662 80.158 291.675 79.9555 291.675 79.753C291.675 78.7674 291.466 77.8697 291.048 77.0597C290.629 76.2497 290.022 75.6016 289.225 75.1156C288.428 74.6161 287.456 74.3664 286.309 74.3664C285.283 74.3664 284.351 74.6161 283.514 75.1156C282.691 75.6151 282.036 76.2969 281.55 77.1609C281.078 78.0114 280.841 78.9902 280.841 80.0972C280.841 81.1637 281.078 82.1358 281.55 83.0133C282.023 83.8908 282.684 84.586 283.535 85.0991C284.385 85.6121 285.377 85.8686 286.511 85.8686ZM286.309 76.5534C287.011 76.5534 287.591 76.7694 288.05 77.2014C288.523 77.6199 288.786 78.1667 288.84 78.8417H283.656C283.805 78.1127 284.115 77.5524 284.588 77.1609C285.074 76.7559 285.647 76.5534 286.309 76.5534ZM298.81 85.8686C299.525 85.8686 300.187 85.7471 300.794 85.5041C301.402 85.2476 301.908 84.8831 302.313 84.4105V85.6256H304.824V70.539H302.171V75.7231C301.348 74.8186 300.22 74.3664 298.789 74.3664C297.75 74.3664 296.805 74.6229 295.954 75.1359C295.117 75.6354 294.456 76.3239 293.97 77.2014C293.484 78.0654 293.241 79.0375 293.241 80.1175C293.241 81.1975 293.484 82.1763 293.97 83.0538C294.456 83.9178 295.117 84.6063 295.954 85.1193C296.791 85.6188 297.743 85.8686 298.81 85.8686ZM299.093 83.4385C298.499 83.4385 297.966 83.2968 297.493 83.0133C297.021 82.7298 296.65 82.3383 296.38 81.8388C296.123 81.3257 295.995 80.752 295.995 80.1175C295.995 79.483 296.123 78.9159 296.38 78.4164C296.65 77.9169 297.021 77.5254 297.493 77.2419C297.966 76.9449 298.499 76.7964 299.093 76.7964C299.687 76.7964 300.214 76.9382 300.673 77.2217C301.145 77.5052 301.51 77.8967 301.766 78.3962C302.036 78.8957 302.171 79.4695 302.171 80.1175C302.171 80.7655 302.036 81.3392 301.766 81.8388C301.51 82.3383 301.145 82.7298 300.673 83.0133C300.214 83.2968 299.687 83.4385 299.093 83.4385Z" fill="#20484F"/>
<rect x="145.096" y="103.438" width="230.348" height="9.28142" rx="4.64071" fill="#20484F" fill-opacity="0.1"/>
<rect x="145.096" y="122.845" width="153.565" height="9.28142" rx="4.64071" fill="#20484F" fill-opacity="0.1"/>
</g>
<defs>
<filter id="filter0_d_264_1025" x="0.770168" y="0.88166" width="448.966" height="214.399" filterUnits="userSpaceOnUse" color-interpolation-filters="sRGB">
<feFlood flood-opacity="0" result="BackgroundImageFix"/>
<feColorMatrix in="SourceAlpha" type="matrix" values="0 0 0 0 0 0 0 0 0 0 0 0 0 0 0 0 0 0 127 0" result="hardAlpha"/>
<feOffset dy="2.11149"/>
<feGaussianBlur stdDeviation="21.1149"/>
<feComposite in2="hardAlpha" operator="out"/>
<feColorMatrix type="matrix" values="0 0 0 0 0.741667 0 0 0 0 0.741667 0 0 0 0 0.741667 0 0 0 0.11 0"/>
<feBlend mode="normal" in2="BackgroundImageFix" result="effect1_dropShadow_264_1025"/>
<feBlend mode="normal" in="SourceGraphic" in2="effect1_dropShadow_264_1025" result="shape"/>
</filter>
<filter id="filter1_d_264_1025" x="9.2494" y="10.6245" width="432.008" height="197.441" filterUnits="userSpaceOnUse" color-interpolation-filters="sRGB">
<feFlood flood-opacity="0" result="BackgroundImageFix"/>
<feColorMatrix in="SourceAlpha" type="matrix" values="0 0 0 0 0 0 0 0 0 0 0 0 0 0 0 0 0 0 127 0" result="hardAlpha"/>
<feOffset dy="3.37506"/>
<feGaussianBlur stdDeviation="16.8753"/>
<feComposite in2="hardAlpha" operator="out"/>
<feColorMatrix type="matrix" values="0 0 0 0 0.541667 0 0 0 0 0.541667 0 0 0 0 0.541667 0 0 0 0.04 0"/>
<feBlend mode="normal" in2="BackgroundImageFix" result="effect1_dropShadow_264_1025"/>
<feBlend mode="normal" in="SourceGraphic" in2="effect1_dropShadow_264_1025" result="shape"/>
</filter>
<clipPath id="clip0_264_1025">
<rect width="28.688" height="28.688" fill="white" transform="translate(81.8132 77.2823)"/>
</clipPath>
</defs>
</svg>
