<svg width="512" height="275" viewBox="0 0 512 275" fill="none" xmlns="http://www.w3.org/2000/svg">
<g filter="url(#filter0_d_274_932)">
<g filter="url(#filter1_d_274_932)">
<rect x="40" y="38" width="432" height="193" rx="12" fill="white"/>
</g>
<circle cx="103" cy="98" r="32" fill="#DCF2ED"/>
<path d="M98.75 103.908L92.8425 98L90.8308 99.9975L98.75 107.917L115.75 90.9167L113.752 88.9192L98.75 103.908Z" fill="#20484F"/>
<path d="M159.994 91H163.258V84.4H166.666C167.882 84.4 168.954 84.184 169.882 83.752C170.81 83.304 171.538 82.656 172.066 81.808C172.61 80.96 172.882 79.944 172.882 78.76C172.882 77.544 172.618 76.52 172.09 75.688C171.562 74.856 170.826 74.224 169.882 73.792C168.954 73.344 167.882 73.12 166.666 73.12H159.994V91ZM163.258 81.52V76H166.714C167.594 76 168.298 76.248 168.826 76.744C169.354 77.24 169.618 77.912 169.618 78.76C169.618 79.592 169.354 80.264 168.826 80.776C168.298 81.272 167.594 81.52 166.714 81.52H163.258ZM175.292 91H178.436V83.728C178.436 82.736 178.708 81.968 179.252 81.424C179.812 80.864 180.532 80.584 181.412 80.584H182.54V77.8H181.772C180.972 77.8 180.268 77.944 179.66 78.232C179.052 78.52 178.58 79.04 178.244 79.792V77.944H175.292V91ZM190.653 91.288C191.917 91.288 193.069 91 194.109 90.424C195.149 89.832 195.981 89.024 196.605 88C197.229 86.96 197.541 85.784 197.541 84.472C197.541 83.16 197.229 81.992 196.605 80.968C195.997 79.944 195.173 79.136 194.133 78.544C193.093 77.952 191.933 77.656 190.653 77.656C189.357 77.656 188.189 77.952 187.149 78.544C186.109 79.136 185.277 79.944 184.653 80.968C184.045 81.992 183.741 83.16 183.741 84.472C183.741 85.784 184.045 86.952 184.653 87.976C185.277 89 186.109 89.808 187.149 90.4C188.205 90.992 189.373 91.288 190.653 91.288ZM190.653 88.408C189.949 88.408 189.317 88.24 188.757 87.904C188.213 87.568 187.781 87.104 187.461 86.512C187.157 85.904 187.005 85.224 187.005 84.472C187.005 83.72 187.157 83.048 187.461 82.456C187.781 81.864 188.213 81.4 188.757 81.064C189.317 80.712 189.949 80.536 190.653 80.536C191.357 80.536 191.973 80.712 192.501 81.064C193.045 81.4 193.469 81.864 193.773 82.456C194.093 83.048 194.253 83.72 194.253 84.472C194.253 85.224 194.093 85.904 193.773 86.512C193.469 87.104 193.045 87.568 192.501 87.904C191.973 88.24 191.357 88.408 190.653 88.408ZM199.925 76.48H203.069V73.12H199.925V76.48ZM198.125 96.304C199.645 96.304 200.845 95.904 201.725 95.104C202.621 94.304 203.069 93.16 203.069 91.672V77.944H199.925V91.672C199.925 92.296 199.733 92.76 199.349 93.064C198.981 93.384 198.461 93.544 197.789 93.544C197.485 93.544 197.197 93.52 196.925 93.472V96.208C197.069 96.24 197.253 96.264 197.477 96.28C197.701 96.296 197.917 96.304 198.125 96.304ZM212.164 91.288C213.492 91.288 214.652 90.992 215.644 90.4C216.652 89.792 217.356 89.024 217.756 88.096L215.212 86.848C214.924 87.344 214.524 87.752 214.012 88.072C213.516 88.376 212.908 88.528 212.188 88.528C211.244 88.528 210.452 88.24 209.812 87.664C209.172 87.088 208.804 86.32 208.708 85.36H218.116C218.18 85.184 218.22 84.984 218.236 84.76C218.268 84.52 218.284 84.28 218.284 84.04C218.284 82.872 218.036 81.808 217.54 80.848C217.044 79.888 216.324 79.12 215.38 78.544C214.436 77.952 213.284 77.656 211.924 77.656C210.708 77.656 209.604 77.952 208.612 78.544C207.636 79.136 206.86 79.944 206.284 80.968C205.724 81.976 205.444 83.136 205.444 84.448C205.444 85.712 205.724 86.864 206.284 87.904C206.844 88.944 207.628 89.768 208.636 90.376C209.644 90.984 210.82 91.288 212.164 91.288ZM211.924 80.248C212.756 80.248 213.444 80.504 213.988 81.016C214.548 81.512 214.86 82.16 214.924 82.96H208.78C208.956 82.096 209.324 81.432 209.884 80.968C210.46 80.488 211.14 80.248 211.924 80.248ZM226.955 91.288C227.899 91.288 228.771 91.128 229.571 90.808C230.371 90.472 231.059 90.016 231.635 89.44C232.211 88.848 232.627 88.184 232.883 87.448L230.123 86.2C229.867 86.888 229.459 87.432 228.899 87.832C228.355 88.216 227.707 88.408 226.955 88.408C226.267 88.408 225.651 88.24 225.107 87.904C224.579 87.568 224.163 87.104 223.859 86.512C223.555 85.904 223.403 85.224 223.403 84.472C223.403 83.704 223.555 83.024 223.859 82.432C224.163 81.84 224.579 81.376 225.107 81.04C225.651 80.704 226.267 80.536 226.955 80.536C227.707 80.536 228.355 80.736 228.899 81.136C229.459 81.536 229.867 82.064 230.123 82.72L232.883 81.52C232.611 80.752 232.187 80.08 231.611 79.504C231.035 78.912 230.347 78.456 229.547 78.136C228.747 77.816 227.883 77.656 226.955 77.656C225.659 77.656 224.491 77.952 223.451 78.544C222.427 79.136 221.619 79.944 221.027 80.968C220.435 81.992 220.139 83.152 220.139 84.448C220.139 85.744 220.435 86.912 221.027 87.952C221.619 88.976 222.427 89.792 223.451 90.4C224.491 90.992 225.659 91.288 226.955 91.288ZM241.221 91.144C241.749 91.144 242.269 91.104 242.781 91.024V88.312C242.477 88.36 242.197 88.384 241.941 88.384C241.173 88.384 240.613 88.208 240.261 87.856C239.909 87.504 239.733 87 239.733 86.344V80.752H242.733V77.944H239.733V74.968H236.589V75.976C236.589 76.616 236.413 77.104 236.061 77.44C235.709 77.776 235.213 77.944 234.573 77.944H234.333V80.752H236.589V86.512C236.589 87.968 236.989 89.104 237.789 89.92C238.605 90.736 239.749 91.144 241.221 91.144ZM256.6 91.288C257.976 91.288 259.192 91 260.248 90.424C261.32 89.848 262.16 89.056 262.768 88.048C263.376 87.04 263.68 85.896 263.68 84.616V73.12H260.416V84.448C260.416 85.2 260.248 85.872 259.912 86.464C259.592 87.04 259.144 87.496 258.568 87.832C258.008 88.152 257.352 88.312 256.6 88.312C255.864 88.312 255.208 88.152 254.632 87.832C254.056 87.496 253.6 87.04 253.264 86.464C252.944 85.872 252.784 85.2 252.784 84.448V73.12H249.52V84.616C249.52 85.896 249.824 87.04 250.432 88.048C251.04 89.056 251.872 89.848 252.928 90.424C254 91 255.224 91.288 256.6 91.288ZM266.675 95.8H269.819V89.752C270.299 90.248 270.883 90.632 271.571 90.904C272.259 91.16 273.003 91.288 273.803 91.288C275.067 91.288 276.195 90.992 277.187 90.4C278.179 89.792 278.963 88.976 279.539 87.952C280.115 86.912 280.403 85.752 280.403 84.472C280.403 83.192 280.115 82.04 279.539 81.016C278.963 79.976 278.179 79.16 277.187 78.568C276.195 77.96 275.075 77.656 273.827 77.656C272.931 77.656 272.123 77.816 271.403 78.136C270.683 78.456 270.091 78.904 269.627 79.48V77.944H266.675V95.8ZM273.443 88.408C272.755 88.408 272.131 88.24 271.571 87.904C271.027 87.568 270.595 87.104 270.275 86.512C269.971 85.92 269.819 85.24 269.819 84.472C269.819 83.704 269.971 83.024 270.275 82.432C270.595 81.84 271.027 81.376 271.571 81.04C272.131 80.704 272.755 80.536 273.443 80.536C274.163 80.536 274.795 80.712 275.339 81.064C275.899 81.4 276.339 81.864 276.659 82.456C276.979 83.048 277.139 83.72 277.139 84.472C277.139 85.224 276.979 85.904 276.659 86.512C276.339 87.104 275.899 87.568 275.339 87.904C274.795 88.24 274.163 88.408 273.443 88.408ZM288.872 91.288C289.72 91.288 290.504 91.144 291.224 90.856C291.944 90.552 292.544 90.12 293.024 89.56V91H296V73.12H292.856V79.264C291.88 78.192 290.544 77.656 288.848 77.656C287.616 77.656 286.496 77.96 285.488 78.568C284.496 79.16 283.712 79.976 283.136 81.016C282.56 82.04 282.272 83.192 282.272 84.472C282.272 85.752 282.56 86.912 283.136 87.952C283.712 88.976 284.496 89.792 285.488 90.4C286.48 90.992 287.608 91.288 288.872 91.288ZM289.208 88.408C288.504 88.408 287.872 88.24 287.312 87.904C286.752 87.568 286.312 87.104 285.992 86.512C285.688 85.904 285.536 85.224 285.536 84.472C285.536 83.72 285.688 83.048 285.992 82.456C286.312 81.864 286.752 81.4 287.312 81.064C287.872 80.712 288.504 80.536 289.208 80.536C289.912 80.536 290.536 80.704 291.08 81.04C291.64 81.376 292.072 81.84 292.376 82.432C292.696 83.024 292.856 83.704 292.856 84.472C292.856 85.24 292.696 85.92 292.376 86.512C292.072 87.104 291.64 87.568 291.08 87.904C290.536 88.24 289.912 88.408 289.208 88.408ZM302.885 91.288C304.581 91.288 305.941 90.728 306.965 89.608V91H309.941V82.312C309.941 81.4 309.709 80.592 309.245 79.888C308.781 79.184 308.141 78.64 307.325 78.256C306.525 77.856 305.589 77.656 304.517 77.656C303.205 77.656 302.037 77.968 301.013 78.592C299.989 79.216 299.285 80.04 298.901 81.064L301.469 82.312C301.709 81.72 302.085 81.248 302.597 80.896C303.109 80.528 303.709 80.344 304.397 80.344C305.117 80.344 305.693 80.536 306.125 80.92C306.573 81.288 306.797 81.752 306.797 82.312V82.744L302.909 83.368C301.373 83.624 300.237 84.112 299.501 84.832C298.765 85.552 298.397 86.456 298.397 87.544C298.397 88.696 298.805 89.608 299.621 90.28C300.437 90.952 301.525 91.288 302.885 91.288ZM301.661 87.424C301.661 86.512 302.277 85.936 303.509 85.696L306.797 85.144V85.672C306.797 86.568 306.485 87.328 305.861 87.952C305.253 88.576 304.453 88.888 303.461 88.888C302.933 88.888 302.501 88.76 302.165 88.504C301.829 88.232 301.661 87.872 301.661 87.424ZM318.564 91.144C319.092 91.144 319.612 91.104 320.124 91.024V88.312C319.82 88.36 319.54 88.384 319.284 88.384C318.516 88.384 317.956 88.208 317.604 87.856C317.252 87.504 317.076 87 317.076 86.344V80.752H320.076V77.944H317.076V74.968H313.932V75.976C313.932 76.616 313.756 77.104 313.404 77.44C313.052 77.776 312.556 77.944 311.916 77.944H311.676V80.752H313.932V86.512C313.932 87.968 314.332 89.104 315.132 89.92C315.948 90.736 317.092 91.144 318.564 91.144ZM328.601 91.288C329.929 91.288 331.089 90.992 332.081 90.4C333.089 89.792 333.793 89.024 334.193 88.096L331.649 86.848C331.361 87.344 330.961 87.752 330.449 88.072C329.953 88.376 329.345 88.528 328.625 88.528C327.681 88.528 326.889 88.24 326.249 87.664C325.609 87.088 325.241 86.32 325.145 85.36H334.553C334.617 85.184 334.657 84.984 334.673 84.76C334.705 84.52 334.721 84.28 334.721 84.04C334.721 82.872 334.473 81.808 333.977 80.848C333.481 79.888 332.761 79.12 331.817 78.544C330.873 77.952 329.721 77.656 328.361 77.656C327.145 77.656 326.041 77.952 325.049 78.544C324.073 79.136 323.297 79.944 322.721 80.968C322.161 81.976 321.881 83.136 321.881 84.448C321.881 85.712 322.161 86.864 322.721 87.904C323.281 88.944 324.065 89.768 325.073 90.376C326.081 90.984 327.257 91.288 328.601 91.288ZM328.361 80.248C329.193 80.248 329.881 80.504 330.425 81.016C330.985 81.512 331.297 82.16 331.361 82.96H325.217C325.393 82.096 325.761 81.432 326.321 80.968C326.897 80.488 327.577 80.248 328.361 80.248ZM343.177 91.288C344.025 91.288 344.809 91.144 345.529 90.856C346.249 90.552 346.849 90.12 347.329 89.56V91H350.305V73.12H347.161V79.264C346.185 78.192 344.849 77.656 343.153 77.656C341.921 77.656 340.801 77.96 339.793 78.568C338.801 79.16 338.017 79.976 337.441 81.016C336.865 82.04 336.577 83.192 336.577 84.472C336.577 85.752 336.865 86.912 337.441 87.952C338.017 88.976 338.801 89.792 339.793 90.4C340.785 90.992 341.913 91.288 343.177 91.288ZM343.513 88.408C342.809 88.408 342.177 88.24 341.617 87.904C341.057 87.568 340.617 87.104 340.297 86.512C339.993 85.904 339.841 85.224 339.841 84.472C339.841 83.72 339.993 83.048 340.297 82.456C340.617 81.864 341.057 81.4 341.617 81.064C342.177 80.712 342.809 80.536 343.513 80.536C344.217 80.536 344.841 80.704 345.385 81.04C345.945 81.376 346.377 81.84 346.681 82.432C347.001 83.024 347.161 83.704 347.161 84.472C347.161 85.24 347.001 85.92 346.681 86.512C346.377 87.104 345.945 87.568 345.385 87.904C344.841 88.24 344.217 88.408 343.513 88.408Z" fill="#20484F"/>
<rect x="161" y="112" width="273" height="11" rx="5.5" fill="#20484F" fill-opacity="0.1"/>
<rect x="161" y="135" width="182" height="11" rx="5.5" fill="#20484F" fill-opacity="0.1"/>
<rect x="161" y="170" width="110" height="37" rx="8" fill="#B8E4DA"/>
</g>
<defs>
<filter id="filter0_d_274_932" x="0" y="0" width="512" height="273" filterUnits="userSpaceOnUse" color-interpolation-filters="sRGB">
<feFlood flood-opacity="0" result="BackgroundImageFix"/>
<feColorMatrix in="SourceAlpha" type="matrix" values="0 0 0 0 0 0 0 0 0 0 0 0 0 0 0 0 0 0 127 0" result="hardAlpha"/>
<feOffset dy="2"/>
<feGaussianBlur stdDeviation="20"/>
<feComposite in2="hardAlpha" operator="out"/>
<feColorMatrix type="matrix" values="0 0 0 0 0.741667 0 0 0 0 0.741667 0 0 0 0 0.741667 0 0 0 0.11 0"/>
<feBlend mode="normal" in2="BackgroundImageFix" result="effect1_dropShadow_274_932"/>
<feBlend mode="normal" in="SourceGraphic" in2="effect1_dropShadow_274_932" result="shape"/>
</filter>
<filter id="filter1_d_274_932" x="0" y="2" width="512" height="273" filterUnits="userSpaceOnUse" color-interpolation-filters="sRGB">
<feFlood flood-opacity="0" result="BackgroundImageFix"/>
<feColorMatrix in="SourceAlpha" type="matrix" values="0 0 0 0 0 0 0 0 0 0 0 0 0 0 0 0 0 0 127 0" result="hardAlpha"/>
<feOffset dy="4"/>
<feGaussianBlur stdDeviation="20"/>
<feComposite in2="hardAlpha" operator="out"/>
<feColorMatrix type="matrix" values="0 0 0 0 0.541667 0 0 0 0 0.541667 0 0 0 0 0.541667 0 0 0 0.04 0"/>
<feBlend mode="normal" in2="BackgroundImageFix" result="effect1_dropShadow_274_932"/>
<feBlend mode="normal" in="SourceGraphic" in2="effect1_dropShadow_274_932" result="shape"/>
</filter>
</defs>
</svg>
